<?xml version="1.0" standalone="no"?>
<!DOCTYPE svg PUBLIC "-//W3C//DTD SVG 20010904//EN"
 "http://www.w3.org/TR/2001/REC-SVG-20010904/DTD/svg10.dtd">
<svg version="1.0" xmlns="http://www.w3.org/2000/svg"
 width="232.000000pt" height="209.000000pt" viewBox="0 0 232.000000 209.000000"
 preserveAspectRatio="xMidYMid meet">

<g transform="translate(0.000000,209.000000) scale(0.100000,-0.100000)"
fill="#000000" stroke="none">
<path d="M1100 1901 c-93 -30 -157 -69 -224 -134 -237 -233 -201 -620 77 -811
202 -139 483 -110 662 69 208 208 207 532 -1 739 -68 69 -152 118 -239 141
-79 20 -206 19 -275 -4z m322 -129 c87 -39 159 -111 201 -200 30 -63 32 -73
32 -182 l0 -115 -41 -75 c-29 -54 -57 -89 -102 -127 -34 -29 -67 -53 -72 -53
-6 0 -10 63 -10 164 0 159 1 165 23 183 67 53 76 116 23 169 -28 28 -41 34
-77 34 -68 -1 -109 -44 -109 -115 0 -29 8 -45 35 -72 l35 -35 0 -179 c0 -209
9 -194 -120 -193 -70 0 -98 6 -155 29 -86 35 -176 121 -220 210 -28 56 -30 67
-30 175 0 109 2 119 32 183 33 68 110 155 166 183 l27 15 0 -165 0 -164 -40
-40 c-30 -29 -40 -48 -40 -71 0 -78 66 -131 139 -111 53 14 81 51 81 105 0 35
-6 48 -35 76 l-35 34 0 182 c0 164 2 182 18 187 9 3 60 4 112 2 81 -3 105 -8
162 -34z"/>
<path d="M1135 741 c-47 -25 -55 -26 -55 -6 0 8 -4 15 -10 15 -6 0 -10 -30
-10 -70 0 -38 4 -70 8 -70 5 0 14 19 21 41 17 56 51 89 94 89 56 0 72 -19 72
-90 0 -55 -3 -64 -28 -86 -15 -13 -37 -24 -48 -24 -11 0 -18 -4 -14 -10 3 -5
12 -7 20 -3 49 18 95 -34 95 -106 0 -79 -33 -111 -115 -111 -67 0 -80 8 -50
32 29 22 32 49 9 72 -41 41 -109 -7 -85 -60 35 -79 227 -84 307 -9 58 55 43
131 -33 169 -18 9 -43 16 -58 16 -38 0 -30 13 25 37 85 37 104 117 39 165 -40
30 -134 35 -184 9z"/>
<path d="M625 738 c11 -6 23 -16 27 -22 4 -6 8 -92 8 -191 0 -99 -4 -185 -8
-191 -4 -6 -16 -16 -27 -22 -16 -10 12 -12 135 -10 143 3 157 5 187 26 42 30
61 88 42 127 -18 36 -57 65 -100 75 l-34 7 28 11 c105 43 102 162 -4 192 -50
15 -280 13 -254 -2z m219 -19 c5 -5 12 -35 14 -66 5 -71 -21 -113 -69 -113
l-29 0 0 90 c0 74 3 91 18 99 17 10 50 6 66 -10z m24 -225 c29 -33 31 -110 2
-147 -24 -30 -63 -42 -90 -27 -18 10 -20 21 -20 112 l0 101 43 -7 c27 -4 50
-15 65 -32z"/>
<path d="M1415 738 c32 -18 35 -28 35 -118 0 -99 11 -122 66 -140 35 -12 111
-9 162 6 23 7 23 6 20 -76 l-3 -83 -35 -13 c-32 -11 -24 -12 80 -13 87 0 110
3 93 11 -30 14 -33 32 -33 213 0 181 3 199 33 213 17 8 -3 11 -83 11 -99 0
-103 -1 -77 -15 27 -15 27 -15 27 -120 0 -103 0 -105 -26 -114 -37 -14 -76
-12 -102 6 -20 14 -22 23 -22 113 0 91 2 100 23 114 21 15 16 16 -78 16 -80 0
-96 -2 -80 -11z"/>
</g>
</svg>
